<svg xmlns="http://www.w3.org/2000/svg" viewBox="0 0 395.89 400"><defs><style>.cls-1{fill:#fff;}.cls-2{fill:#032b91;}.cls-3{fill:#1488db;}</style></defs><g id="Layer_2" data-name="Layer 2"><g id="Layer_1-2" data-name="Layer 1"><polygon class="cls-1" points="296.92 171.43 296.92 285.71 197.95 342.85 98.97 285.71 98.97 171.43 197.95 114.29 296.92 171.43"/><polygon class="cls-2" points="197.95 0 197.95 114.29 98.97 171.43 98.97 57.15 197.95 0"/><polygon class="cls-3" points="296.92 57.15 296.92 171.43 197.95 114.29 197.95 0 296.92 57.15"/><polygon class="cls-3" points="98.97 171.43 98.97 285.71 0 342.85 0 228.57 98.97 171.43"/><polygon class="cls-2" points="197.95 342.85 98.97 400 0 342.85 98.97 285.71 197.95 342.85"/><polygon class="cls-2" points="395.89 228.57 395.89 342.85 296.92 285.71 296.92 171.43 395.89 228.57"/><polygon class="cls-3" points="395.89 342.85 296.92 400 197.95 342.85 296.92 285.71 395.89 342.85"/><path class="cls-2" d="M133.43,171.43h28.11a80.21,80.21,0,0,1,12.45.7,17.73,17.73,0,0,1,12.74,8.9,16.3,16.3,0,0,1,2.16,8.34A16.9,16.9,0,0,1,179,204.83a18.5,18.5,0,0,1,9.88,6.46A17.35,17.35,0,0,1,192.34,222a21.42,21.42,0,0,1-2.23,9.46,19,19,0,0,1-6.09,7.34,20,20,0,0,1-9.52,3.38q-3.56.39-17.13.48H133.43Zm14.2,11.86v16.48h9.31q8.3,0,10.31-.24A9.34,9.34,0,0,0,173,197a7.59,7.59,0,0,0,2.08-5.57,7.87,7.87,0,0,0-1.8-5.37,8.06,8.06,0,0,0-5.34-2.51q-2.12-.24-12.14-.24Zm0,28.34v19.06h13.15a64.16,64.16,0,0,0,9.74-.43,8.39,8.39,0,0,0,7.14-8.9,9.42,9.42,0,0,0-1.53-5.45,8.65,8.65,0,0,0-4.44-3.25q-2.9-1-12.59-1Z"/><path class="cls-2" d="M204.53,242.7V171.43h14.2v31.65l28.69-31.65h19.09L240,199.19,268,242.7H249.58l-19.34-33.45-11.51,11.91V242.7Z"/><path class="cls-3" d="M141.34,285.26V263.11h-7.91V258.6h21.19v4.51h-7.89v22.15Z"/><path class="cls-3" d="M158.09,285.26V258.6h8.64a31.06,31.06,0,0,1,6.4.4,7,7,0,0,1,3.84,2.61,8.27,8.27,0,0,1,1.54,5.19,8.64,8.64,0,0,1-.89,4.13,7.4,7.4,0,0,1-2.26,2.63,8.05,8.05,0,0,1-2.79,1.26,30.37,30.37,0,0,1-5.59.38h-3.51v10.06Zm5.38-22.15v7.56h2.95a14.37,14.37,0,0,0,4.26-.41,3.61,3.61,0,0,0,1.68-1.31,3.66,3.66,0,0,0,.61-2.08,3.44,3.44,0,0,0-.86-2.4,3.73,3.73,0,0,0-2.16-1.18,26.15,26.15,0,0,0-3.87-.18Z"/><path class="cls-3" d="M178.1,285.26v-5.11h5.11v5.11Z"/><path class="cls-3" d="M188.5,285.26V258.6h5.38v10.49h10.55V258.6h5.38v26.66h-5.38V273.6H193.88v11.66Z"/><path class="cls-3" d="M232.44,275.46l5.21,1.65a11.69,11.69,0,0,1-4,6.48,11.33,11.33,0,0,1-7.08,2.12,11.5,11.5,0,0,1-8.73-3.62q-3.42-3.63-3.42-9.92,0-6.66,3.44-10.34a11.77,11.77,0,0,1,9-3.69,11.06,11.06,0,0,1,7.94,2.9,10.46,10.46,0,0,1,2.73,4.91l-5.33,1.27a5.52,5.52,0,0,0-5.62-4.48,6.07,6.07,0,0,0-4.81,2.13Q220,267,220,271.77c0,3.37.6,5.77,1.82,7.2a5.88,5.88,0,0,0,4.72,2.14,5.41,5.41,0,0,0,3.7-1.36A7.94,7.94,0,0,0,232.44,275.46Z"/><path class="cls-3" d="M242.2,285.26V258.6h8.06l4.83,18.18,4.79-18.18H268v26.66h-5v-21l-5.29,21h-5.18l-5.28-21v21Z"/></g></g></svg>